<svg width="0" height="0" class="hidden">
  <symbol xmlns="http://www.w3.org/2000/svg" viewBox="0 0 512.002 512.002" id="linkedin">
    <circle style="fill:#070716;" cx="256.001" cy="256" r="256"/>
    <path style="fill:#070716;" d="M511.016,233.634L394.729,117.198c-71.035,9.237-145.27,7.859-216.305,9.511
      c-29.306,0-58.613,13.791-53.441,46.545c10.343,65.508,15.515,129.293,3.448,196.525c-1.9,8.545-5.897,17.089-11.117,25.059
      L233.48,511.005c7.421,0.646,14.929,0.996,22.519,0.996c141.384,0,256-114.616,256-256
      C512.001,248.461,511.656,241.005,511.016,233.634z"/>
    <path style="fill:#FFFFFF;" d="M376.023,109.468H135.979c-14.643,0-26.51,11.867-26.51,26.51V376.02
      c0,14.639,11.867,26.51,26.51,26.51h240.042c14.639,0,26.51-11.871,26.51-26.51V135.978
      C402.533,121.335,390.662,109.468,376.023,109.468L376.023,109.468z M200.155,362.517c0,4.263-3.453,7.716-7.716,7.716h-32.837
      c-4.263,0-7.716-3.455-7.716-7.716V224.856c0-4.263,3.455-7.716,7.716-7.716h32.839c4.263,0,7.716,3.455,7.716,7.716v137.661
      H200.155z M176.02,204.162c-17.23,0-31.196-13.969-31.196-31.201c0-17.229,13.965-31.196,31.196-31.196
      c17.232,0,31.198,13.969,31.198,31.196C207.218,190.195,193.251,204.162,176.02,204.162L176.02,204.162z M371.773,363.139
      c0,3.918-3.175,7.096-7.09,7.096h-35.242c-3.915,0-7.092-3.177-7.092-7.096v-64.574c0-9.63,2.826-42.21-25.172-42.21
      c-21.719,0-26.124,22.3-27.008,32.304v74.478c0,3.918-3.175,7.096-7.094,7.096h-34.082c-3.918,0-7.096-3.177-7.096-7.096V224.234
      c0-3.918,3.177-7.096,7.096-7.096h34.082c3.918,0,7.094,3.177,7.094,7.096v12.009c8.054-12.085,20.023-21.416,45.502-21.416
      c56.425,0,56.105,52.717,56.105,81.686v66.627H371.773z"/>
    <path style="fill:#fff;" d="M376.023,109.468H255.427v107.67h7.647c3.918,0,7.094,3.177,7.094,7.096v12.009
      c8.054-12.085,20.023-21.416,45.503-21.416c56.425,0,56.105,52.717,56.105,81.686v66.625c0,3.918-3.175,7.096-7.09,7.096h-35.242
      c-3.915,0-7.092-3.177-7.092-7.096v-64.574c0-9.63,2.826-42.21-25.172-42.21c-21.719,0-26.124,22.3-27.008,32.304v74.478
      c0,3.918-3.175,7.096-7.094,7.096h-7.647v32.301h120.596c14.639,0,26.51-11.871,26.51-26.51V135.978
      C402.533,121.335,390.662,109.468,376.023,109.468z"/>
  </symbol>
  <symbol xmlns="http://www.w3.org/2000/svg" viewBox="0 0 512 512" id="twitter">
    <path d="m256 0c-141.363281 0-256 114.636719-256 256s114.636719 256 256 256 256-114.636719 256-256-114.636719-256-256-256zm116.886719 199.601562c.113281 2.519532.167969 5.050782.167969 7.59375 0 77.644532-59.101563 167.179688-167.183594 167.183594h.003906-.003906c-33.183594 0-64.0625-9.726562-90.066406-26.394531 4.597656.542969 9.277343.8125 14.015624.8125 27.53125 0 52.867188-9.390625 72.980469-25.152344-25.722656-.476562-47.410156-17.464843-54.894531-40.8125 3.582031.6875 7.265625 1.0625 11.042969 1.0625 5.363281 0 10.558593-.722656 15.496093-2.070312-26.886718-5.382813-47.140624-29.144531-47.140624-57.597657 0-.265624 0-.503906.007812-.75 7.917969 4.402344 16.972656 7.050782 26.613281 7.347657-15.777343-10.527344-26.148437-28.523438-26.148437-48.910157 0-10.765624 2.910156-20.851562 7.957031-29.535156 28.976563 35.554688 72.28125 58.9375 121.117187 61.394532-1.007812-4.304688-1.527343-8.789063-1.527343-13.398438 0-32.4375 26.316406-58.753906 58.765625-58.753906 16.902344 0 32.167968 7.144531 42.890625 18.566406 13.386719-2.640625 25.957031-7.53125 37.3125-14.261719-4.394531 13.714844-13.707031 25.222657-25.839844 32.5 11.886719-1.421875 23.214844-4.574219 33.742187-9.253906-7.863281 11.785156-17.835937 22.136719-29.308593 30.429687zm0 0"/>
  </symbol>
  <symbol xmlns="http://www.w3.org/2000/svg" viewBox="0 0 97.75 97.75" id="facebook">
    <path d="M48.875,0C21.882,0,0,21.882,0,48.875S21.882,97.75,48.875,97.75S97.75,75.868,97.75,48.875S75.868,0,48.875,0z
		M67.521,24.89l-6.76,0.003c-5.301,0-6.326,2.519-6.326,6.215v8.15h12.641L67.07,52.023H54.436v32.758H41.251V52.023H30.229V39.258
		h11.022v-9.414c0-10.925,6.675-16.875,16.42-16.875l9.851,0.015V24.89L67.521,24.89z"/>
  </symbol>
  <symbol xmlns="http://www.w3.org/2000/svg" viewBox="0 0 512 512" id="instagram">
    <path d="m305 256c0 27.0625-21.9375 49-49 49s-49-21.9375-49-49 21.9375-49 49-49 49 21.9375 49 49zm0 0"/><path d="m370.59375 169.304688c-2.355469-6.382813-6.113281-12.160157-10.996094-16.902344-4.742187-4.882813-10.515625-8.640625-16.902344-10.996094-5.179687-2.011719-12.960937-4.40625-27.292968-5.058594-15.503906-.707031-20.152344-.859375-59.402344-.859375-39.253906 0-43.902344.148438-59.402344.855469-14.332031.65625-22.117187 3.050781-27.292968 5.0625-6.386719 2.355469-12.164063 6.113281-16.902344 10.996094-4.882813 4.742187-8.640625 10.515625-11 16.902344-2.011719 5.179687-4.40625 12.964843-5.058594 27.296874-.707031 15.5-.859375 20.148438-.859375 59.402344 0 39.25.152344 43.898438.859375 59.402344.652344 14.332031 3.046875 22.113281 5.058594 27.292969 2.359375 6.386719 6.113281 12.160156 10.996094 16.902343 4.742187 4.882813 10.515624 8.640626 16.902343 10.996094 5.179688 2.015625 12.964844 4.410156 27.296875 5.0625 15.5.707032 20.144532.855469 59.398438.855469 39.257812 0 43.90625-.148437 59.402344-.855469 14.332031-.652344 22.117187-3.046875 27.296874-5.0625 12.820313-4.945312 22.953126-15.078125 27.898438-27.898437 2.011719-5.179688 4.40625-12.960938 5.0625-27.292969.707031-15.503906.855469-20.152344.855469-59.402344 0-39.253906-.148438-43.902344-.855469-59.402344-.652344-14.332031-3.046875-22.117187-5.0625-27.296874zm-114.59375 162.179687c-41.691406 0-75.488281-33.792969-75.488281-75.484375s33.796875-75.484375 75.488281-75.484375c41.6875 0 75.484375 33.792969 75.484375 75.484375s-33.796875 75.484375-75.484375 75.484375zm78.46875-136.3125c-9.742188 0-17.640625-7.898437-17.640625-17.640625s7.898437-17.640625 17.640625-17.640625 17.640625 7.898437 17.640625 17.640625c-.003906 9.742188-7.898437 17.640625-17.640625 17.640625zm0 0"/><path d="m256 0c-141.363281 0-256 114.636719-256 256s114.636719 256 256 256 256-114.636719 256-256-114.636719-256-256-256zm146.113281 316.605469c-.710937 15.648437-3.199219 26.332031-6.832031 35.683593-7.636719 19.746094-23.246094 35.355469-42.992188 42.992188-9.347656 3.632812-20.035156 6.117188-35.679687 6.832031-15.675781.714844-20.683594.886719-60.605469.886719-39.925781 0-44.929687-.171875-60.609375-.886719-15.644531-.714843-26.332031-3.199219-35.679687-6.832031-9.8125-3.691406-18.695313-9.476562-26.039063-16.957031-7.476562-7.339844-13.261719-16.226563-16.953125-26.035157-3.632812-9.347656-6.121094-20.035156-6.832031-35.679687-.722656-15.679687-.890625-20.6875-.890625-60.609375s.167969-44.929688.886719-60.605469c.710937-15.648437 3.195312-26.332031 6.828125-35.683593 3.691406-9.808594 9.480468-18.695313 16.960937-26.035157 7.339844-7.480469 16.226563-13.265625 26.035157-16.957031 9.351562-3.632812 20.035156-6.117188 35.683593-6.832031 15.675781-.714844 20.683594-.886719 60.605469-.886719s44.929688.171875 60.605469.890625c15.648437.710937 26.332031 3.195313 35.683593 6.824219 9.808594 3.691406 18.695313 9.480468 26.039063 16.960937 7.476563 7.34375 13.265625 16.226563 16.953125 26.035157 3.636719 9.351562 6.121094 20.035156 6.835938 35.683593.714843 15.675781.882812 20.683594.882812 60.605469s-.167969 44.929688-.886719 60.605469zm0 0"/>
  </symbol>
</svg>